<?xml version="1.0" encoding="utf-8"?>
<!-- Generator: Adobe Illustrator 20.1.0, SVG Export Plug-In . SVG Version: 6.00 Build 0)  -->
<svg version="1.1" id="Ebene_1" xmlns="http://www.w3.org/2000/svg" xmlns:xlink="http://www.w3.org/1999/xlink" x="0px" y="0px"
	 viewBox="0 0 1188 552.7" style="enable-background:new 0 0 1188 552.7;" xml:space="preserve">
<style type="text/css">
	.st0{fill:#0279B3;stroke:#000000;stroke-width:0.25;stroke-miterlimit:10;}
	.st1{fill:#0279B3;}
	.st2{fill:none;}
	.st3{fill:none;stroke:#0279B3;stroke-width:5;stroke-miterlimit:10;}
</style>
<title>grid-vs-flexbox</title>
<rect x="25.1" y="71.3" class="st0" width="108" height="339"/>
<rect x="150.1" y="71.3" class="st0" width="108" height="339"/>
<rect x="275.1" y="71.3" class="st0" width="108" height="339"/>
<rect x="737.9" y="71.3" class="st1" width="105" height="105"/>
<rect x="984.9" y="188.3" class="st1" width="105" height="222"/>
<rect x="737.9" y="188.3" class="st1" width="230.1" height="105"/>
<rect x="737.9" y="305.3" class="st1" width="105" height="105"/>
<rect x="861.4" y="305.3" class="st1" width="105" height="105"/>
<rect x="858.9" y="71.3" class="st1" width="231.4" height="105"/>
<line class="st2" x1="54.9" y1="23.3" x2="353.4" y2="23.3"/>
<line class="st3" x1="72.8" y1="23.3" x2="318.1" y2="23.3"/>
<circle class="st1" cx="73.7" cy="23.3" r="18.8"/>
<polygon class="st1" points="353.4,23.3 303.6,43.6 315.4,23.3 303.6,3 "/>
<line class="st2" x1="764.9" y1="23.3" x2="1063.3" y2="23.3"/>
<line class="st3" x1="782.7" y1="23.3" x2="1028" y2="23.3"/>
<circle class="st1" cx="783.7" cy="23.3" r="18.8"/>
<polygon class="st1" points="1063.3,23.3 1013.6,43.6 1025.4,23.3 1013.6,3 "/>
<line class="st2" x1="1140.7" y1="93.6" x2="1140.7" y2="392"/>
<line class="st3" x1="1140.7" y1="111.4" x2="1140.7" y2="356.7"/>
<circle class="st1" cx="1140.7" cy="112.4" r="18.8"/>
<polygon class="st1" points="1140.7,392 1120.3,342.3 1140.7,354.1 1161,342.3 "/>
<path d="M117.9,495h4.4v-28.2h-4.4V464h22.7v7.2h-3V467h-11.9v12.7h12.3v2.9h-12.3V495h4.7v2.8h-12.5V495z"/>
<path d="M146.8,466.7h-4.3V464h7.5v27.5c0,2,0.5,3.6,2.7,3.6c0.4,0,0.9,0,1.3-0.1v2.8c-0.6,0.1-1.2,0.1-1.9,0.1
	c-3.2,0-5.5-1.6-5.5-6.2L146.8,466.7z"/>
<path d="M169.7,473.1c6.7,0,10.1,5.1,10.1,11.1c0,0.5-0.1,1-0.1,1.5h-18.5c0.1,6.2,4.4,9.7,9.4,9.7c2.7,0,5.3-1.1,7.3-2.9l1.5,2.4
	c-2.5,2.2-5.6,3.3-8.9,3.4c-6.7,0.2-12.4-5-12.6-11.8c0-0.3,0-0.6,0-0.9C157.8,477.8,163.2,473.1,169.7,473.1z M176.4,483.3
	c-0.2-5.1-3.3-7.5-6.8-7.5c-4,0-7.5,2.6-8.3,7.5H176.4z"/>
<path d="M183.5,495.1h3.8l6.2-9.8l-5.7-8.9h-4.1v-2.7h6.1l4.8,8c0.4,0.6,0.8,1.4,0.8,1.4h0.1c0,0,0.3-0.7,0.8-1.4l4.9-7.9h5.9v2.7
	h-4l-5.7,8.8l6.3,9.8h3.6v2.7h-5.7l-5.4-8.9c-0.3-0.4-0.6-0.9-0.8-1.4h-0.1c-0.2,0.5-0.5,1-0.8,1.4l-5.4,8.8h-5.7L183.5,495.1z"/>
<path d="M212.9,466.7h-4.3V464h7.6V476c0,0.7,0,1.3-0.1,2h0.1c1.6-3.1,4.8-5,8.3-4.9c6.5,0,10.5,5.2,10.5,12.7s-4.6,12.6-10.9,12.6
	c-3.4,0-6.5-1.9-8-4.9h-0.1c0.1,0.7,0.1,1.3,0.1,2v2.3h-3.2L212.9,466.7z M223.8,495.4c4.3,0,7.8-3.5,7.8-9.7c0-5.9-3.2-9.7-7.7-9.7
	c-4,0-7.8,2.9-7.8,9.7C216.1,490.6,218.6,495.4,223.8,495.4L223.8,495.4z"/>
<path d="M252.1,473.1c7,0,12.6,5.7,12.6,12.7c0,7-5.7,12.6-12.7,12.6c-7,0-12.6-5.7-12.6-12.7c0,0,0,0,0,0c0-6.9,5.6-12.5,12.5-12.5
	C251.9,473.1,252,473.1,252.1,473.1z M252.1,495.4c5.3-0.1,9.5-4.4,9.4-9.6c0-0.1,0-0.1,0-0.2c0.2-5.2-3.9-9.5-9.1-9.7
	s-9.5,3.9-9.7,9.1c0,0.2,0,0.4,0,0.6c-0.2,5.3,3.9,9.7,9.2,9.8C252,495.4,252,495.4,252.1,495.4z"/>
<path d="M267.8,495.1h3.8l6.2-9.9l-5.7-8.9H268v-2.7h6.1l4.8,8c0.4,0.6,0.8,1.4,0.8,1.4h0.1c0,0,0.3-0.7,0.8-1.4l4.9-7.9h5.9v2.7h-4
	l-5.7,8.9l6.3,9.8h3.6v2.7H286l-5.4-8.9c-0.3-0.4-0.6-0.9-0.8-1.4h-0.1c-0.2,0.5-0.5,1-0.8,1.4l-5.4,8.8h-5.7L267.8,495.1z"/>
<path d="M836.3,463.5c4.1,0,12.6,1.5,12.6,6.7v3.6h-3.3v-2.7c0-3.3-5.8-4.6-9.2-4.6c-7.8,0-13.7,6-13.7,14.1
	c0,8.4,5.9,14.7,13.9,14.7c2.7,0,9.5-1.1,9.5-4.6v-2.6h3.2v3.6c0,4.9-8.2,6.7-12.9,6.7c-10.1,0-17.3-7.9-17.3-17.7
	c-0.2-9.3,7.1-17,16.4-17.2C835.8,463.5,836,463.5,836.3,463.5z"/>
<path d="M858.3,488.4v2.4c0,2.8,3.5,4.5,7.4,4.5c4.4,0,7.5-2.2,7.5-6.1c0-4.4-4.1-6-8.4-7.6c-4.4-1.6-9-3.5-9-9.4s4.7-8.8,10.3-8.8
	c4.8,0,9.7,1.9,9.7,5.3v3.6h-3.2v-2.5c0-2.2-3.5-3.3-6.5-3.3c-3.8,0-6.8,1.9-6.8,5.5c0,4.1,3.6,5.4,7.7,7c4.9,1.8,9.7,3.7,9.7,9.9
	c0,6-4.7,9.5-11,9.5c-4.8,0-10.6-2.2-10.6-6.8v-3.2L858.3,488.4z"/>
<path d="M885.4,488.4v2.4c0,2.8,3.5,4.5,7.4,4.5c4.4,0,7.5-2.2,7.5-6.1c0-4.4-4.1-6-8.4-7.6s-9-3.5-9-9.4s4.7-8.8,10.3-8.8
	c4.8,0,9.7,1.9,9.7,5.3v3.6h-3.2v-2.5c0-2.2-3.5-3.3-6.5-3.3c-3.8,0-6.8,1.9-6.8,5.5c0,4.1,3.6,5.4,7.7,7c4.9,1.8,9.7,3.7,9.7,9.9
	c0,6-4.7,9.5-11,9.5c-4.8,0-10.6-2.2-10.6-6.8v-3.2L885.4,488.4z"/>
<path d="M938.7,463.5c5.8,0,12.7,2.4,12.7,6.6v3.7h-3.2v-2.6c0-3.2-5.2-4.7-9.5-4.7c-8.6,0-14.1,6-14.1,14.3c0,8.3,5.6,14.5,14,14.5
	c3.4,0,10.3-1.1,10.3-4.9v-5.2h-7.1v-2.8h10.2v8.8c0,5.2-8.4,7.1-13.5,7.1c-10.4,0-17.5-7.5-17.5-17.5
	C921.2,471,928.2,463.5,938.7,463.5z"/>
<path d="M957.6,495.1h3.7v-17.7c0.1-0.5-0.3-1-0.8-1.1c-0.1,0-0.2,0-0.3,0H957v-2.7h4.6c2,0,2.9,0.8,2.9,2.7v1.6
	c0,0.6,0,1.2-0.1,1.8h0.1c1.2-3.6,3.9-6.4,7.6-6.4c0.4,0,0.9,0.1,1.3,0.1v3.2c-0.4-0.1-0.8-0.1-1.3-0.1c-5.4,0-7.6,6.1-7.6,10.9v7.5
	h3.7v2.7h-10.8V495.1z"/>
<path d="M976.5,495.1h4.1v-18.8h-4.3v-2.7h7.6v21.5h4.1v2.7h-11.4L976.5,495.1z M980.4,464h3.7v4.1h-3.7V464z"/>
<path d="M1002.6,473.1c3.3-0.1,6.4,1.8,7.9,4.7h0.1c-0.1-0.6-0.1-1.2-0.1-1.9v-9.2h-4.3V464h7.6v30c-0.1,0.5,0.3,1,0.8,1.1
	c0.1,0,0.2,0,0.3,0h2.7v2.7h-4c-2.1,0-2.9-0.9-2.9-2.6v-0.4c0-0.5,0-1,0.2-1.5h-0.1c-1.5,3.3-4.9,5.3-8.5,5.1
	c-6.5,0-10.5-5.2-10.5-12.6C991.7,478.1,996.2,473.1,1002.6,473.1z M1002.7,495.4c4,0,7.8-2.9,7.8-9.7c0-4.9-2.5-9.7-7.6-9.7
	c-4.3,0-7.8,3.5-7.8,9.7C995.1,491.6,998.2,495.4,1002.7,495.4L1002.7,495.4z"/>
<path class="st1" d="M107.9,529c4.8-0.1,8.7,3.6,8.8,8.4c0,0.1,0,0.2,0,0.3c0,4.9-4,8.8-8.8,8.8c-4.9,0-8.8-4-8.8-8.8
	c0-4.8,3.8-8.6,8.5-8.7C107.7,529,107.8,529,107.9,529z M107.9,543.8c3.1,0,5.6-2.7,5.6-6.2c0.2-3.1-2.2-5.7-5.3-5.9
	c-3.1-0.2-5.7,2.2-5.9,5.3c0,0.2,0,0.4,0,0.7C102.3,541.1,104.8,543.8,107.9,543.8L107.9,543.8z"/>
<path class="st1" d="M118.8,543.9h2v-12.3h-2v-2.4h5.2l7.2,11c0.3,0.5,0.5,0.9,0.6,1.4h0.1c-0.1-0.5-0.1-1.1-0.1-1.6v-8.4h-2.1v-2.4
	h7.3v2.4h-2v14.7h-3.1l-7.2-10.9c-0.2-0.5-0.5-0.9-0.6-1.4h-0.1c0.1,0.5,0.1,1.1,0.1,1.6v8.4h2.1v2.3h-7.3L118.8,543.9z"/>
<path class="st1" d="M139.1,543.9h2v-12.3h-2v-2.4h12.6v4.4h-2.7v-1.9h-4.8v4.7h5.6v2.5h-5.6v4.8h5.1v-1.9h2.7v4.4h-13L139.1,543.9z
	"/>
<path class="st1" d="M160.5,543.9h2v-12.3h-2v-2.4h7.4c1.2,0,2.4,0.1,3.5,0.4c3.3,1,5.5,3.9,5.5,8.1c0,4-2,6.9-5.3,8
	c-1.2,0.4-2.5,0.6-3.8,0.5h-7.4V543.9z M167.7,543.8c0.9,0,1.9-0.1,2.8-0.4c1.9-0.8,3.2-2.8,3.2-5.6s-1.3-4.8-3.3-5.6
	c-0.9-0.3-1.8-0.4-2.7-0.4h-2.1v12H167.7z"/>
<path class="st1" d="M179.1,543.9h2v-12.3h-2v-2.4h7.2v2.4h-2.1v12.3h2.1v2.3h-7.2V543.9z"/>
<path class="st1" d="M188.5,543.9h2l1-12.3h-2.1v-2.4h5.5l3.8,9.6c0.2,0.5,0.3,0.9,0.4,1.4l0,0c0.1-0.5,0.3-1,0.4-1.4l3.8-9.6h5.5
	v2.4h-2l1,12.3h2v2.3h-7v-2.3h1.9l-0.6-8.6c0-0.5,0-1.1,0.1-1.6h-0.1c-0.1,0.5-0.2,1-0.4,1.5l-3.2,7.9h-2.7l-3.3-7.8
	c-0.2-0.5-0.3-1-0.4-1.5h-0.1c0.1,0.5,0.1,1.1,0.1,1.6l-0.6,8.6h1.9v2.3h-7L188.5,543.9z"/>
<path class="st1" d="M212.1,543.9h2v-12.3h-2v-2.4h12.6v4.4H222v-1.9h-4.8v4.7h5.6v2.5h-5.6v4.8h5.1v-1.9h2.7v4.4h-13L212.1,543.9z"
	/>
<path class="st1" d="M227.4,543.9h2v-12.3h-2v-2.4h5.2l7.2,11c0.3,0.5,0.5,0.9,0.6,1.4h0.1c-0.1-0.5-0.1-1.1-0.1-1.6v-8.4h-2.1v-2.4
	h7.3v2.4h-2v14.7h-3.1l-7.2-10.9c-0.2-0.5-0.5-0.9-0.6-1.4h-0.1c0.1,0.5,0.1,1.1,0.1,1.6v8.4h2.1v2.3h-7.3L227.4,543.9z"/>
<path class="st1" d="M250.6,540.8v1.3c0,1.1,1.4,1.7,3,1.7s3-0.7,3-2.1c0-1.7-1.9-2.3-3.9-3c-2.3-0.9-4.5-1.9-4.5-4.9
	c0-3.4,2.8-4.7,5.7-4.7c2.7,0,5.4,1,5.4,3v2.2h-2.9v-1.1c0-0.9-1.3-1.3-2.5-1.3c-1.3,0-2.5,0.6-2.5,1.9c0,1.6,1.6,2.1,3.4,2.8
	c2.5,0.9,5.1,1.9,5.1,5.1c0,3.5-2.9,5.1-6.1,5.1c-2.8,0-5.9-1.3-5.9-3.8v-1.9L250.6,540.8z"/>
<path class="st1" d="M262,543.9h2v-12.3h-2v-2.4h7.2v2.4h-2.1v12.3h2.1v2.3H262V543.9z"/>
<path class="st1" d="M280.2,529c4.8-0.1,8.7,3.6,8.8,8.4c0,0.1,0,0.2,0,0.3c0,4.9-4,8.8-8.8,8.8c-4.9,0-8.8-4-8.8-8.8
	c0-4.8,3.8-8.6,8.5-8.7C280,529,280.1,529,280.2,529z M280.2,543.8c3.1,0,5.6-2.7,5.6-6.2c0.2-3.1-2.2-5.7-5.3-5.9
	c-3.1-0.2-5.7,2.2-5.9,5.3c0,0.2,0,0.4,0,0.7C274.6,541.1,277.1,543.8,280.2,543.8L280.2,543.8z"/>
<path class="st1" d="M291.1,543.9h2v-12.3h-2v-2.4h5.2l7.2,11c0.3,0.5,0.5,0.9,0.6,1.4h0.1c-0.1-0.5-0.1-1.1-0.1-1.6v-8.4h-2.1v-2.4
	h7.3v2.4h-2v14.7h-3.1l-7.2-10.9c-0.2-0.5-0.5-0.9-0.6-1.4h-0.1c0.1,0.5,0.1,1.1,0.1,1.6v8.4h2.1v2.3h-7.3L291.1,543.9z"/>
<path class="st1" d="M809.9,543.9h2v-12.2h-3.2v2.6h-2.6v-5.1H821v5.1h-2.7v-2.6h-3.2v12.2h2.1v2.3h-7.2V543.9z"/>
<path class="st1" d="M822,529.2h6.6v2.4h-2l2.2,9.7c0.1,0.5,0.2,1,0.2,1.5h0.1c0-0.5,0.1-1,0.3-1.5l3.2-12.1h2.5l3.2,12.1
	c0.1,0.5,0.2,1,0.3,1.5h0.1c0-0.5,0.1-1,0.2-1.5l2.2-9.7h-2v-2.4h6.6v2.4h-1.6l-3.6,14.7h-3.5l-2.9-10.7c-0.1-0.5-0.2-1-0.3-1.6
	h-0.1c0,0.5-0.1,1-0.3,1.6l-2.9,10.7h-3.5l-3.6-14.7H822L822,529.2z"/>
<path class="st1" d="M855.7,529c4.8-0.1,8.7,3.6,8.8,8.4c0,0.1,0,0.2,0,0.3c0,4.9-4,8.8-8.8,8.8c-4.9,0-8.8-4-8.8-8.8
	c0-4.8,3.8-8.6,8.5-8.7C855.5,529,855.6,529,855.7,529z M855.7,543.8c3.1,0,5.6-2.7,5.6-6.2c0.2-3.1-2.2-5.7-5.3-5.9
	c-3.1-0.2-5.7,2.2-5.9,5.3c0,0.2,0,0.4,0,0.7C850.1,541.1,852.6,543.8,855.7,543.8L855.7,543.8z"/>
<path class="st1" d="M872.7,543.9h2v-12.3h-2v-2.4h7.4c1.2,0,2.4,0.1,3.5,0.4c3.3,1,5.5,3.9,5.5,8.1c0,4-2,6.9-5.3,8
	c-1.2,0.4-2.5,0.6-3.8,0.5h-7.4L872.7,543.9z M880,543.8c0.9,0,1.9-0.1,2.8-0.4c1.9-0.8,3.2-2.8,3.2-5.6s-1.3-4.8-3.3-5.6
	c-0.9-0.3-1.8-0.4-2.7-0.4h-2.1v12H880z"/>
<path class="st1" d="M891.4,543.9h2v-12.3h-2v-2.4h7.2v2.4h-2v12.3h2v2.3h-7.2L891.4,543.9z"/>
<path class="st1" d="M900.8,543.9h2l1-12.3h-2.1v-2.4h5.5l3.8,9.6c0.2,0.5,0.3,0.9,0.4,1.4l0,0c0.1-0.5,0.3-1,0.4-1.4l3.8-9.6h5.5
	v2.4h-2l1,12.3h2v2.3h-7v-2.3h1.9l-0.6-8.6c0-0.5,0-1.1,0.1-1.6h-0.1c-0.1,0.5-0.2,1-0.4,1.5l-3.3,7.8h-2.7l-3.3-7.8
	c-0.2-0.5-0.3-1-0.4-1.5h-0.1c0.1,0.5,0.1,1.1,0.1,1.6l-0.6,8.6h1.9v2.3h-7L900.8,543.9z"/>
<path class="st1" d="M924.3,543.9h2v-12.3h-2v-2.4H937v4.4h-2.7v-1.9h-4.8v4.7h5.6v2.5h-5.6v4.8h5.1v-1.9h2.7v4.4h-13L924.3,543.9z"
	/>
<path class="st1" d="M939.7,543.9h2v-12.3h-2v-2.4h5.2l7.2,11c0.3,0.5,0.5,0.9,0.6,1.4h0.1c-0.1-0.5-0.1-1.1-0.1-1.6v-8.4h-2.1v-2.4
	h7.3v2.4h-2v14.7h-3.2l-7.2-10.9c-0.2-0.5-0.5-0.9-0.6-1.4h-0.1c0.1,0.5,0.1,1.1,0.1,1.6v8.4h2.1v2.3h-7.3L939.7,543.9z"/>
<path class="st1" d="M962.8,540.8v1.3c0,1.1,1.4,1.7,3,1.7c1.6,0,3-0.7,3-2.1c0-1.7-1.9-2.3-3.9-3c-2.3-0.9-4.5-1.9-4.5-4.9
	c0-3.4,2.8-4.7,5.7-4.7c2.7,0,5.4,1,5.4,3v2.2h-2.9v-1.1c0-0.9-1.3-1.3-2.5-1.3c-1.3,0-2.5,0.6-2.5,1.9c0,1.6,1.6,2.1,3.4,2.8
	c2.5,0.9,5.1,1.9,5.1,5.1c0,3.5-2.9,5.1-6.1,5.1c-2.8,0-5.9-1.3-5.9-3.8v-1.9L962.8,540.8z"/>
<path class="st1" d="M974.3,543.9h2v-12.3h-2v-2.4h7.2v2.4h-2.1v12.3h2.1v2.3h-7.2V543.9z"/>
<path class="st1" d="M992.5,529c4.8-0.1,8.7,3.6,8.8,8.4c0,0.1,0,0.2,0,0.3c0,4.9-4,8.8-8.8,8.8c-4.9,0-8.8-4-8.8-8.8l0,0
	c0-4.8,3.8-8.6,8.5-8.7C992.2,529,992.3,529,992.5,529z M992.5,543.8c3.1,0,5.6-2.7,5.6-6.2c0.2-3.1-2.2-5.7-5.3-5.9
	s-5.7,2.2-5.9,5.3c0,0.2,0,0.4,0,0.7C986.9,541.1,989.4,543.8,992.5,543.8L992.5,543.8z"/>
<path class="st1" d="M1003.3,543.9h2v-12.3h-2v-2.4h5.2l7.2,11c0.3,0.5,0.5,0.9,0.6,1.4h0.1c-0.1-0.5-0.1-1.1-0.1-1.6v-8.4h-2.1
	v-2.4h7.3v2.4h-2v14.7h-3.1l-7.2-10.9c-0.2-0.5-0.5-0.9-0.6-1.4h-0.1c0.1,0.5,0.1,1.1,0.1,1.6v8.4h2.1v2.3h-7.3L1003.3,543.9z"/>
<path class="st1" d="M1026.5,540.8v1.3c0,1.1,1.4,1.7,3,1.7c1.6,0,3-0.7,3-2.1c0-1.7-1.9-2.3-3.9-3c-2.3-0.9-4.5-1.9-4.5-4.9
	c0-3.4,2.8-4.7,5.7-4.7c2.7,0,5.4,1,5.4,3v2.2h-2.9v-1.1c0-0.9-1.3-1.3-2.5-1.3c-1.3,0-2.5,0.6-2.5,1.9c0,1.6,1.6,2.1,3.4,2.8
	c2.5,0.9,5.1,1.9,5.1,5.1c0,3.5-2.9,5.1-6.1,5.1c-2.8,0-5.9-1.3-5.9-3.8v-1.9L1026.5,540.8z"/>
</svg>
